<svg id="Layer_1" data-name="Layer 1" xmlns="http://www.w3.org/2000/svg" xmlns:xlink="http://www.w3.org/1999/xlink" viewBox="0 0 361.28 373.35"><defs><style>.cls-1{fill:url(#linear-gradient);}.cls-2{fill:url(#linear-gradient-2);}</style><linearGradient id="linear-gradient" x1="119.99" y1="131.99" x2="387.12" y2="399.12" gradientUnits="userSpaceOnUse"><stop offset="0" stop-color="#c87d31"/><stop offset="0.26" stop-color="#ca8332"/><stop offset="0.6" stop-color="#d29436"/><stop offset="1" stop-color="#ddb03b"/></linearGradient><linearGradient id="linear-gradient-2" x1="119.84" y1="131.84" x2="387.1" y2="399.1" xlink:href="#linear-gradient"/></defs><title>Origins by the sea</title><path class="cls-1" d="M341.94,420.77q-3.35,1.75-6.81,3.34a163.64,163.64,0,0,1-35.37,11.57c-11.72,2.39-23.06,4.59-35.11,5.11-3.26.14-6.52.22-9.78.26-9.51.14-19.14-1.18-28.55-2.78a207.62,207.62,0,0,1-28.41-6.84,149.57,149.57,0,0,1-45.22-23.52A322.54,322.54,0,0,1,124,383.48a120,120,0,0,1-16.25-20.12,268.94,268.94,0,0,1-16.35-28.31c-9.66-19.43-14.69-41.2-16.15-62.8-1.52-22.33.7-45.47,8.24-66.54a194.36,194.36,0,0,1,25.25-47.91,170.13,170.13,0,0,1,23.08-25.91c4.26-3.89,8.78-7.4,13.31-10.95,4.15-3.26,8.77-5.84,13.16-8.74,4.22-2.79,8.42-5.56,12.88-8a153.16,153.16,0,0,1,33.74-13c11.64-3.12,23.53-5.5,35.59-6.07,14.7-.69,29.23-.29,43.48,2.55,10.85,2.17,21.34,6.34,31.86,10,19.12,6.66,34.77,18.88,49.5,32.24a164.46,164.46,0,0,1,17.49,19c4.62,5.76,8.27,12.28,12.48,18.37,11.46,16.54,17.08,35.31,20.9,54.72a205.73,205.73,0,0,1,2.63,20.9,85,85,0,0,1,.45,14.69c-1,12.26-1.7,24.6-6.09,36.32-3.77,10.06-6.53,20.59-11.27,30.15a149.25,149.25,0,0,1-27.88,38.55c-10.32,10.46-21.11,20.42-33.92,27.63-14,7.87-28.35,15.27-44.23,18.76-11.22,2.46-22.36,4.94-34.07,5.22a188.4,188.4,0,0,1-39.24-3.17c-20-3.73-37.87-12-54.33-23.46-11.83-8.23-23.05-17.31-31.55-29.24-5.25-7.38-11.52-14.28-15.94-22.19s-8.53-15.26-11.27-23.94c-3.18-10.06-6.32-20.74-7.65-31.21a169.29,169.29,0,0,1-1.15-31,135.29,135.29,0,0,1,13.54-52.7,160.23,160.23,0,0,1,16.36-25.59,171.59,171.59,0,0,1,20.69-23.2,150.65,150.65,0,0,1,64.56-34.2,133.46,133.46,0,0,1,28.27-3.73A227.63,227.63,0,0,1,279.71,113a64.81,64.81,0,0,1,15.87,4.38,256.77,256.77,0,0,1,26.16,12.32c7.49,4.17,15.56,8.9,21.78,14.84,8.81,8.42,17.34,17.24,24.31,27.26,7.11,10.23,12.15,21.9,17,33.33,9.16,21.67,9.51,46.36,6.58,69.4-1.25,9.82-4.21,18.71-7.75,27.92-6.66,17.34-17.53,32-30.12,45.34-8.39,8.88-18.37,16-29,22-16.66,9.45-34.33,16.5-53.54,18.31a188.18,188.18,0,0,1-29.08.16c-12.37-.76-24-4.33-35.65-9a122,122,0,0,1-32.77-19.87,151.58,151.58,0,0,1-20.81-21.49,110.08,110.08,0,0,1-14.38-23c-4-8.9-6.28-18.6-9.06-28-3.58-12.15-4.07-24.7-3-37.16a118.75,118.75,0,0,1,9.87-38.57,128.73,128.73,0,0,1,30.33-41.69c9.86-9.17,21.4-16.13,33.78-21.78a125.2,125.2,0,0,1,43.21-11.45,106.87,106.87,0,0,1,38.09,3.67c9.39,2.73,18.85,6.29,27.17,11.32a118.2,118.2,0,0,1,26.5,21.33c5.83,6.39,11.4,12.87,15.5,20.25,7.27,13.07,13.18,26.55,15.39,41.89,2.41,16.74,1.76,32.87-2.85,48.84-2,6.9-6,13.19-8.69,19.9-3.87,9.47-10.65,16.94-17.43,24.1-8.83,9.32-19.32,16.7-30.53,23.24-8.92,5.2-18.66,7.27-28.21,9.89-7.37,2-15.31,2.12-23,2.59-14.41.89-28.12-2.41-41-8.54-6.49-3.08-12.56-7.13-18.59-11.11a95.11,95.11,0,0,1-29.42-31.3,101.66,101.66,0,0,1-13.22-37.89c-2-13.76-1.74-27,2.06-40.3a103.34,103.34,0,0,1,14.15-29.33c7.82-11.63,18.26-20.18,29.25-28s23.74-11.88,36.9-14.16a87.49,87.49,0,0,1,77.34,23.75,101.49,101.49,0,0,1,19.12,25.16,78.45,78.45,0,0,1,8.45,27.18c1,8,1.84,15.73,1.06,23.83A74.26,74.26,0,0,1,327.51,299a110.38,110.38,0,0,1-16.84,18.46c-13.07,11.54-28.7,17.73-46,19.87a80.37,80.37,0,0,1-21-.41,68.91,68.91,0,0,1-38.88-18.71c-5.08-4.8-10.1-9.95-13.86-15.77-4.38-6.79-8.92-14.16-10.55-21.87-2.06-9.72-4.12-19.56-2.35-30.17a73.49,73.49,0,0,1,16.9-36.6c13.53-15.6,31.73-25.31,52.51-26.53A60.72,60.72,0,0,1,280.07,194c13.24,7,23.22,17.82,30,31.3a61.77,61.77,0,0,1,6.28,27.82c.09,18.9-8.55,33.59-22.57,45.14-11.77,9.7-25.61,15-41.17,14.23-12.3-.61-22.62-5.78-31.6-14.26-10.08-9.53-16.28-20.34-17.47-34.66-1-11.8,2.2-21.66,8.68-30.82,6.88-9.73,16.63-15.61,28-18.78,13.85-3.86,26.1-.43,36.32,9.37,3.79,3.65,6.7,8.32,9.58,12.79,5.84,9.09,5.73,18.89,2.11,28.64a31.67,31.67,0,0,1-12.95,15.46c-7.32,4.7-15.08,8.37-24.3,6a29.6,29.6,0,0,1-16.3-10.67c-3.66-4.75-6.49-10.32-6.13-16.47.33-5.68,3.47-10.42,7.51-14.24a25.28,25.28,0,0,1,9-5.81,14.2,14.2,0,0,1,14,2.59c3.5,3,6.71,7.94,5.38,12.7a11.07,11.07,0,0,1-4,5.67,4.79,4.79,0,0,1-1.74.92c-2,.48-3.85-1.27-5.86-1.82-2.33-.65-4.77.37-7,1.37.61,4.71,5.34,8.16,10.08,8.42,13.38.74,20.85-14,15.72-25.26-2.14-4.72-6.61-7.95-11.17-10.42-8.63-4.67-17.76-3.71-26,1.6a32,32,0,0,0-13.95,22.35,22.75,22.75,0,0,0,1.18,11.13c2.66,6.78,6.22,13,11.92,18.14,8,7.24,17.63,9.44,27.42,8.72,8.48-.63,16.61-5,22.87-10.85,14.41-13.46,20-33.89,10.16-51.8-4.8-8.73-12.06-15.85-20.07-21.65-7.44-5.39-16.87-7-25.94-6.46a57.2,57.2,0,0,0-52.41,45.51c-2.31,10.93-.85,21.63,3.56,31.88a73.11,73.11,0,0,0,5,9.48A62.93,62.93,0,0,0,223.88,311c16.72,10.68,34.44,12.21,52.51,6.05,8-2.73,16.08-6.57,22.65-12.86,6.77-6.48,13.35-12.73,17.85-21.29,11.52-21.86,9.6-43.58-.75-64.68-3.81-7.77-10.53-14.46-17-20.52a69.73,69.73,0,0,0-37-18.08c-15.48-2.58-30,.43-44.14,6.58a82,82,0,0,0-24.9,17.3,74.22,74.22,0,0,0-8.9,10c-12.41,17.93-18.66,40.22-13.58,61.78l.08.33c5.41,22.57,18.93,44.07,38.57,56.86,16.79,10.93,35.37,15.82,55.39,13,8.38-1.19,16.95-2.95,24.72-6.16,16.27-6.71,30.5-16.42,41.36-30.85,6.9-9.16,12.28-18.78,15.52-29.78,4.59-15.59,5.69-31.07,1.5-47-3.49-13.24-7.81-25.77-16.47-36.78-8.2-10.44-17.21-20-28.33-27a96.11,96.11,0,0,0-34.73-13.13,101.28,101.28,0,0,0-50.38,3.88,112.39,112.39,0,0,0-47,30.51,97.74,97.74,0,0,0-20.37,33.08c-5.09,14.1-7.78,28.37-7,43.53a99.69,99.69,0,0,0,8.19,35.38c8.34,18.87,19.86,35.62,37.05,48.11,18,13.06,39,21.67,61.4,22.63a108.51,108.51,0,0,0,26.24-2.11,127.16,127.16,0,0,0,34.7-12.73c10.22-5.49,20.09-11.76,28.42-19.87a119,119,0,0,0,17.62-21.93A126.6,126.6,0,0,0,373,278.66c5.91-23.06,2.89-45.92-4.87-68.11-3-8.57-6.14-16.72-11.13-24.35a157.76,157.76,0,0,0-16.86-20.77,116.56,116.56,0,0,0-26.82-21.33,84.9,84.9,0,0,0-12.39-5.94c-6.49-2.47-12.84-5.67-19.56-7.12-23.34-5-46.66-4.62-69.52,2.6a134.38,134.38,0,0,0-74.19,58,138.67,138.67,0,0,0-15.3,34.41c-5.57,19.6-5.94,39.15-2.24,59.13a139.46,139.46,0,0,0,14.22,39.67c4.95,9.42,11.81,18,18.63,26.24A113.07,113.07,0,0,0,183.68,377a188.51,188.51,0,0,0,32.63,14.67c11.56,4,23.77,5.27,36.17,5.72,22.88.82,45.83-5,66.28-15.14C340.12,371.61,358.17,356,373,337.44a112.52,112.52,0,0,0,17.4-30.24c2.94-7.74,6.12-15.49,7.92-23.52,3.25-14.5,4.72-29.25,2.86-44.15-.66-5.29-.69-10.7-1.85-15.86-2.68-11.9-6.08-23.72-11.46-34.69a163.93,163.93,0,0,0-20.07-31c-7.47-9.22-15.45-17.67-25.09-24.61a178.65,178.65,0,0,0-27-16.39,170,170,0,0,0-30-10.81c-21.33-5.62-45-5-66.48-.38a161.09,161.09,0,0,0-59.9,26.36,163.52,163.52,0,0,0-43,45.16,174.51,174.51,0,0,0-19,42.47c-6.7,22-7.25,46.4-2.83,68.84,4.54,23,14.23,44.95,27.24,64.41a134,134,0,0,0,17.5,21.54c7.5,7.3,16,13.71,24.49,19.85,6.64,4.78,13.64,9.42,21.14,12.59,11,4.64,22.27,9,33.86,11.48a201.71,201.71,0,0,0,39.57,4.33c13.94.12,28-1.52,41.38-6.2,10.29-3.59,20.82-6.74,30.63-11.38,8.43-4,16.28-9.39,23.85-14.89,8.65-6.29,17.31-12.78,24.86-20.29a137.46,137.46,0,0,0,17.9-22.68,233,233,0,0,0,17-30.22,152.24,152.24,0,0,0,13.49-59.05A177.63,177.63,0,0,0,425,222.44a172.41,172.41,0,0,0-13-41.5c-3.28-7.29-7.57-14.15-11.64-21.07a166.3,166.3,0,0,0-27.57-34.61,163.55,163.55,0,0,0-43.51-30.5,171.2,171.2,0,0,0-28.5-10.9c-11.67-3.25-23.67-6.51-35.66-7.16A248.39,248.39,0,0,0,228,77.9c-12.33,1.18-23.88,4.61-35.48,9-10.79,4.07-21.33,8.36-31.3,14.19-10.85,6.35-21.48,13.2-31.08,21.37-.86.73-1.72,1.47-2.56,2.23-9.18,8.21-17.17,17.63-24.72,27.33-3.51,4.51-7.73,9.12-10.28,14.2-2.71,5.41-5.82,10.59-8.44,16a191.19,191.19,0,0,0-7.49,17.79,173.58,173.58,0,0,0-10.3,66.59,198.46,198.46,0,0,0,15.56,68.64c5.67,13.37,13.26,25.11,21.89,36.74a264.35,264.35,0,0,0,17.55,20.75,150.44,150.44,0,0,0,13.45,12.78,89.21,89.21,0,0,0,11.29,8.09c10.35,6.33,20.46,13.24,31.38,18.41,9.77,4.64,20.41,7.57,30.83,10.72a168.66,168.66,0,0,0,67.31,5.94,200.53,200.53,0,0,0,68.54-20.64c20.66-10.55,40.63-24.61,55.72-42.37,4.55-5.36,9.14-10.69,13.49-16.21,1.94-2.47,1.85-5.61-.78-7.35-.93-.61-4.05.75-5.21,2.06-4.59,5.19-8.4,11.12-13.25,16C378.45,396.15,361.7,410.45,341.94,420.77Z" transform="translate(-66.22 -76.44)"/><path class="cls-2" d="M342.11,421.1c9.26-6.05,19-11.52,27.65-18.31s16.62-14.67,24.39-22.55c4.85-4.92,8.66-10.85,13.25-16,1.16-1.31,4.28-2.67,5.21-2.06,2.63,1.74,2.72,4.88.78,7.35C409,375,404.45,380.34,399.9,385.7,387.75,400,373,411,357.13,420.92c-14,8.8-29,14.47-44.4,20-15,5.35-30.5,7.53-45.94,8.47a166.3,166.3,0,0,1-58.46-6.59c-10.42-3.15-21.06-6.08-30.83-10.72-10.92-5.17-21-12.08-31.38-18.41a89.21,89.21,0,0,1-11.29-8.09,150.44,150.44,0,0,1-13.45-12.78A264.35,264.35,0,0,1,103.83,372a234.46,234.46,0,0,1-17.3-26.17c-3.85-7-6.33-14.73-8.86-22.33q-4.53-13.62-8-27.58A96.77,96.77,0,0,1,67.1,279c-.58-8.61-1-17.26-.73-25.87a168.11,168.11,0,0,1,10.31-53.08,220.71,220.71,0,0,1,16.54-34.9,95.54,95.54,0,0,1,10.54-14.29c7.75-9.08,15-18.81,24-26.6,9.69-8.44,21-15,31.68-22.27a68.75,68.75,0,0,1,11.26-6.3c8.17-3.5,16.42-6.86,24.8-9.78,8.07-2.81,16.21-6.24,24.57-7.18,14.94-1.67,30.12-2.83,45.09-2,12,.65,24,3.91,35.66,7.16a171.2,171.2,0,0,1,28.5,10.9,163.55,163.55,0,0,1,43.51,30.5,166.3,166.3,0,0,1,27.57,34.61c4.07,6.92,8.36,13.78,11.64,21.07a172.41,172.41,0,0,1,13,41.5,177.63,177.63,0,0,1,2.41,35.69,152.24,152.24,0,0,1-13.49,59.05,233,233,0,0,1-17,30.22A137.46,137.46,0,0,1,379,370.08c-7.55,7.51-16.21,14-24.86,20.29-7.57,5.5-15.42,10.91-23.85,14.89-9.81,4.64-20.34,7.79-30.63,11.38-13.38,4.68-27.44,6.32-41.38,6.2a201.71,201.71,0,0,1-39.57-4.33c-11.59-2.45-22.9-6.84-33.86-11.48-7.5-3.17-14.5-7.81-21.14-12.59-8.52-6.14-17-12.55-24.49-19.85a134,134,0,0,1-17.5-21.54c-5.34-8-9.68-16.68-14.08-25.26a121.7,121.7,0,0,1-12.1-34.53c-1.65-9.45-4.08-19-3.92-28.48.26-15.09,1.18-30.19,5.69-45a174.51,174.51,0,0,1,19-42.47c9.17-14.59,20.75-26.72,33.74-38.07,12.42-10.86,26.63-18.14,41.11-25.15,6.29-3,13.36-4.6,20.19-6.43,6.38-1.71,12.85-3.53,19.39-4.16a207,207,0,0,1,28.71-.93,125.06,125.06,0,0,1,26.24,3.6,170,170,0,0,1,30,10.81,178.65,178.65,0,0,1,27,16.39c15,10.82,26.68,24.9,36.33,40.66,3.18,5.2,6.92,10.1,9.67,15.52,2.14,4.22,3.21,9,4.62,13.57,2.1,6.82,4.44,13.59,6,20.53,1.16,5.16,1.19,10.57,1.85,15.86,1.86,14.9.39,29.65-2.86,44.15-1.8,8-5,15.78-7.92,23.52a112.93,112.93,0,0,1-19.74,33.09c-5.74,6.76-12.1,13-18.35,19.34-9.11,9.2-20.51,15-31.49,21.56a97,97,0,0,1-27.22,11.12c-13.35,3.2-27,5.55-41.09,5.05-12.4-.45-24.61-1.73-36.17-5.72A188.51,188.51,0,0,1,183.68,377a113.07,113.07,0,0,1-30.75-25.86c-6.82-8.28-13.68-16.82-18.63-26.24a139.46,139.46,0,0,1-14.22-39.67c-3.7-20-3.33-39.53,2.24-59.13a142,142,0,0,1,20.33-42.14c7.19-10.43,16.14-19.09,25.55-27a116,116,0,0,1,36.42-20.47c5.21-1.81,10.22-4.36,15.54-5.65,5.82-1.42,11.9-1.78,17.86-2.59,14.62-2,29.08-.3,43.31,2.77,6.72,1.45,13.07,4.65,19.56,7.12,12.62,4.79,23.35,12.69,33.42,21.35,5.42,4.67,10,10.43,14.51,16,6,7.33,12,14.78,15.28,23.77,3.21,8.69,6,17.54,8.67,26.43a74.32,74.32,0,0,1,2.76,13.61A110.84,110.84,0,0,1,373,278.66a126.6,126.6,0,0,1-15.87,36.59,113.44,113.44,0,0,1-28.81,31.41c-9,6.58-19.4,11.36-29.53,16.18a101.14,101.14,0,0,1-20.6,7c-6.07,1.4-12.46,1.52-18.73,2a96.53,96.53,0,0,1-37.71-5.13,121.41,121.41,0,0,1-33-17.38C171.52,336.77,160,320,151.66,301.15a99.69,99.69,0,0,1-8.19-35.38c-.77-15.16,1.92-29.43,7-43.53a97.74,97.74,0,0,1,20.37-33.08,112.39,112.39,0,0,1,47-30.51,101.28,101.28,0,0,1,50.38-3.88A96.11,96.11,0,0,1,303,167.9c11.12,6.93,20.13,16.53,28.33,27,8.66,11,13,23.54,16.47,36.78,4.19,15.93,3.09,31.41-1.5,47-3.24,11-8.62,20.62-15.52,29.78-10.86,14.43-25.09,24.14-41.36,30.85-7.77,3.21-16.34,5-24.72,6.16-20,2.84-38.6-2.05-55.39-13-12.14-7.9-21.27-18.67-28.62-31.3-6.62-11.36-9.93-23.61-11.9-36.23-.88-5.67.3-11.78,1.24-17.58,2-12.38,7.11-23.61,14.21-33.86a74.22,74.22,0,0,1,8.9-10,82,82,0,0,1,24.9-17.3c14.09-6.15,28.66-9.16,44.14-6.58a69.73,69.73,0,0,1,37,18.08c6.44,6.06,13.16,12.75,17,20.52,10.35,21.1,12.27,42.82.75,64.68-4.5,8.56-11.08,14.81-17.85,21.29-6.57,6.29-14.64,10.13-22.65,12.86-18.07,6.16-35.79,4.63-52.51-6.05a64.46,64.46,0,0,1-29.08-45.38,49.88,49.88,0,0,1,6.66-31.31c5.59-9.71,12.7-18.42,23.51-23.08,4.55-2,8.89-4.95,13.62-5.78,15.59-2.74,30.53-1.32,42.32,10.86,5.18,5.35,10.44,10.88,14.26,17.17,2.53,4.17,3.1,9.79,3.63,14.85,1.53,14.55-4.67,26.41-14.88,35.94-6.26,5.84-14.39,10.22-22.87,10.85-9.79.72-19.41-1.48-27.42-8.72-5.7-5.15-9.26-11.36-11.92-18.14a22.75,22.75,0,0,1-1.18-11.13c2.27-15.49,14.13-26.35,29-27.24,4.68-.28,10,2.68,14.28,5.29a21.21,21.21,0,0,1,8,8.88c1.5,3.3,1.41,7.62,1.07,11.4-.78,8.91-12.8,15.92-21,12.5a10.91,10.91,0,0,1-4.17-3c-1-1.26-1.39-3.05-2-4.61,2.2-.55,4.56-1.89,6.55-1.47,2.74.57,5.38,3.7,8.16,1.13,5.2-4.83,5.32-7.54,2.86-12.85-4.45-9.58-15.55-12.14-24.26-4.74-4.13,3.5-8,6.85-9.63,12.29-2.44,8.08.81,14.95,5.33,20.82A29.6,29.6,0,0,0,251,286.23c9.22,2.33,17-1.34,24.3-6a31.67,31.67,0,0,0,12.95-15.46c3.62-9.75,3.73-19.55-2.11-28.64-2.88-4.47-5.79-9.14-9.58-12.79-10.22-9.8-22.47-13.23-36.32-9.37-11.36,3.17-21.11,9-28,18.78-6.48,9.16-9.67,19-8.68,30.82,1.19,14.32,7.39,25.13,17.47,34.66,9,8.48,19.3,13.65,31.6,14.26,15.56.78,29.4-4.53,41.17-14.23,14-11.55,22.66-26.24,22.57-45.14a61.77,61.77,0,0,0-6.28-27.82c-6.77-13.48-16.75-24.27-30-31.3a60.72,60.72,0,0,0-32.63-6.72,71.72,71.72,0,0,0-31.81,9.28c-7,4-13.86,8.42-18.64,15.38-2.58,3.75-6.64,6.57-8.84,10.48a83.94,83.94,0,0,0-10.12,28c-1.77,10.61.29,20.45,2.35,30.17,1.63,7.71,6.17,15.08,10.55,21.87,3.76,5.82,8.78,11,13.86,15.77a68.91,68.91,0,0,0,38.88,18.71,80.37,80.37,0,0,0,21,.41c17.29-2.14,32.92-8.33,46-19.87A110.38,110.38,0,0,0,327.51,299a74.26,74.26,0,0,0,13.94-36.39c.78-8.1,0-15.86-1.06-23.83a78.45,78.45,0,0,0-8.45-27.18,101.49,101.49,0,0,0-19.12-25.16,87.49,87.49,0,0,0-77.34-23.75c-13.16,2.28-26,6.45-36.9,14.16s-21.43,16.34-29.25,28a103.34,103.34,0,0,0-14.15,29.33c-3.8,13.26-4.05,26.54-2.06,40.3a101.66,101.66,0,0,0,13.22,37.89,95.11,95.11,0,0,0,29.42,31.3c6,4,12.1,8,18.59,11.11,12.91,6.13,26.62,9.43,41,8.54,7.72-.47,15.66-.57,23-2.59,9.55-2.62,19.29-4.69,28.21-9.89,11.21-6.54,21.7-13.92,30.53-23.24,6.78-7.16,13.56-14.63,17.43-24.1,2.73-6.71,6.7-13,8.69-19.9,4.61-16,5.26-32.1,2.85-48.84-2.21-15.34-8.12-28.82-15.39-41.89-4.1-7.38-9.67-13.86-15.5-20.25a118.2,118.2,0,0,0-26.5-21.33c-8.32-5-17.78-8.59-27.17-11.32a106.87,106.87,0,0,0-38.09-3.67,125.2,125.2,0,0,0-43.21,11.45c-12.38,5.65-23.92,12.61-33.78,21.78a128.73,128.73,0,0,0-30.33,41.69,118.75,118.75,0,0,0-9.87,38.57c-1.11,12.46-.62,25,3,37.16,2.78,9.43,5,19.13,9.06,28a110.08,110.08,0,0,0,14.38,23,151.58,151.58,0,0,0,20.81,21.49,122,122,0,0,0,32.77,19.87c11.61,4.69,23.28,8.26,35.65,9a188.18,188.18,0,0,0,29.08-.16c19.21-1.81,36.88-8.86,53.54-18.31,10.62-6,20.6-13.15,29-22,12.59-13.34,23.46-28,30.12-45.34,4.46-11.61,8.65-23.28,8.5-36.06-.11-9.43,1.74-19,.44-28.24-1.62-11.37-2.6-23.1-8-33.73-3.39-6.74-6.15-13.8-9.54-20.53a97.48,97.48,0,0,0-18.69-26c-4.52-4.44-8.26-9.8-13.17-13.72a157.59,157.59,0,0,0-21.48-14.45,256.77,256.77,0,0,0-26.16-12.32A64.81,64.81,0,0,0,279.71,113c-8.89-1.22-17.93-1.36-26.86-2.37-12.45-1.4-24.41,1.89-36.49,3.62-5.67.82-11.19,3.18-16.6,5.31-17.74,7-34.33,16.22-48.45,29.09a171.59,171.59,0,0,0-20.69,23.2,160.23,160.23,0,0,0-16.36,25.59,135.29,135.29,0,0,0-13.54,52.7,171.64,171.64,0,0,0,2,36.63c.84,5.4,3.35,10.52,4.24,15.91,1.87,11.27,6.68,21.4,12.21,31,5,8.75,11.73,16.53,17.61,24.79,8.5,11.93,19.72,21,31.55,29.24,16.46,11.45,34.32,19.73,54.33,23.46a188.4,188.4,0,0,0,39.24,3.17c11.71-.28,22.85-2.76,34.07-5.22,15.88-3.49,30.23-10.89,44.23-18.76,12.81-7.21,23.6-17.17,33.92-27.63A149.25,149.25,0,0,0,402,324.19c4.74-9.56,7.5-20.09,11.27-30.15,4.39-11.72,5.08-24.06,6.09-36.32a85,85,0,0,0-.45-14.69,205.73,205.73,0,0,0-2.63-20.9c-3.82-19.41-9.44-38.18-20.9-54.72-4.21-6.09-7.86-12.61-12.48-18.37a164.46,164.46,0,0,0-17.49-19c-14.73-13.36-30.38-25.58-49.5-32.24-10.52-3.66-21-7.83-31.86-10-14.25-2.84-28.78-3.24-43.48-2.55-14.08.67-27.58,3.74-40.8,7.52A133.27,133.27,0,0,0,160.08,111c-6.31,4.38-13.25,8-19,13-8.52,7.45-17.7,14.32-24.27,23.85-2.27,3.31-5.68,5.84-7.86,9.19a269.8,269.8,0,0,0-14.46,24,198.63,198.63,0,0,0-12.14,28c-5,15.34-8.19,31.14-7.4,47.48.47,9.66.24,19.4,1.38,29,.9,7.5,4,14.72,5.07,22.22,1.34,9.94,5.72,18.63,10,27.28a268.94,268.94,0,0,0,16.35,28.31A120,120,0,0,0,124,383.48a322.54,322.54,0,0,0,28.67,24.43,149.57,149.57,0,0,0,45.22,23.52,207.62,207.62,0,0,0,28.41,6.84c9.41,1.6,19,2.92,28.55,2.78,13.46-.19,26.92-.91,40.21-4.28C311.15,432.7,327.17,428.84,342.11,421.1Z" transform="translate(-66.22 -76.44)"/></svg>